# xmcd CD database file
#
# Track frame offsets:
#	150
#	22471
#	61552
#	96402
#	121666
#	160904
#
# Disc length: 2345 seconds
#
# Revision: 1
# Processed by: cddbd v1.5.2PL0 Copyright (c) Steve Scherf et al.
# Submitted via: CDex 1.70beta2
#
DISCID=47092706
DTITLE=Henry Threadgill Zooid - This Brings Us To Volume 1
DYEAR=2009
DGENRE=Jazz
TTITLE0=White Wednesday Off The Wall
TTITLE1=To Undertake My Corners Open
TTITLE2=Chairmaster 
TTITLE3=After Some Time
TTITLE4=Sap
TTITLE5=Mirror Mirror The Verb
EXTD=YEAR: 2009
EXTT0=
EXTT1=
EXTT2=
EXTT3=
EXTT4=
EXTT5=
PLAYORDER=
